<svg xmlns="http://www.w3.org/2000/svg" xmlns:xlink="http://www.w3.org/1999/xlink"><defs><symbol fill="none" viewBox="0 0 20 20" id="icon-telegram"><path fill="currentColor" d="M17.22 3.098 2.447 8.795c-1.009.405-1.003.968-.185 1.218l3.793 1.184 8.777-5.538c.415-.252.794-.116.482.16l-7.11 6.418H8.2h.001l-.261 3.91c.383 0 .552-.175.767-.383l1.843-1.791 3.832 2.83c.707.39 1.215.19 1.39-.654L18.29 4.293c.258-1.033-.394-1.5-1.068-1.195Z" /></symbol><symbol fill="none" viewBox="0 0 20 19" id="icon-viber"><path fill="currentColor" d="M10.774 2a.504.504 0 0 0-.516.49c0 .271.231.49.516.49 3.42 0 6.194 2.635 6.194 5.885 0 .27.23.49.516.49.285 0 .516-.22.516-.49C18 5.073 14.765 2 10.774 2ZM4.167 3.6c.293-.143.808-.216 1.103.046.37.327.939.9 1.33 1.399.39.5.938 1.26 1.016 1.43.078.17.165.769-.226 1.13-.313.29-.721.546-.886.638a.825.825 0 0 0-.182.984c.278.6.877 1.776 1.91 2.653 1.034.876 2.129 1.337 2.815 1.484.044 0 .1.01.165.021.232.041.579.102.877-.198.306-.308.585-.63.687-.754.159-.164.622-.442 1.198-.246.721.246 1.546.785 1.92 1.038.299.203.964.684 1.26.9.18.13.48.52.243 1.03-.296.638-1.555 2.045-2.684 2.045-.417 0-4.448-1.084-8.01-4.144C4.43 11.102 2.472 7.71 2.136 6.567c-.128-.271-.278-.94.139-1.445.417-.504.886-1.03 1.893-1.522ZM10.774 5.923a.504.504 0 0 0-.516.49c0 .27.231.49.516.49 1.14 0 2.065.878 2.065 1.962 0 .27.23.49.516.49.285 0 .516-.22.516-.49 0-1.625-1.386-2.942-3.097-2.942Z" /><path fill="currentColor" d="M10.258 4.452c0-.271.231-.49.516-.49 2.85 0 5.162 2.195 5.162 4.903 0 .27-.232.49-.517.49a.504.504 0 0 1-.516-.49c0-2.167-1.848-3.923-4.129-3.923a.504.504 0 0 1-.516-.49Z" /></symbol><symbol fill="none" viewBox="0 0 20 20" id="icon-whatsapp"><path fill="currentColor" fill-rule="evenodd" d="M15.669 4.325A7.948 7.948 0 0 0 10.034 2C5.643 2 2.068 5.557 2.067 9.928c0 1.398.366 2.761 1.063 3.964L2 18l4.223-1.103a8 8 0 0 0 3.807.965h.004c4.39 0 7.964-3.556 7.966-7.928a7.852 7.852 0 0 0-2.331-5.609Zm-5.635 12.2h-.003a6.632 6.632 0 0 1-3.37-.92l-.242-.143-2.506.654.668-2.431-.157-.25a6.555 6.555 0 0 1-1.012-3.507c.002-3.633 2.972-6.59 6.624-6.59a6.606 6.606 0 0 1 4.681 1.933 6.55 6.55 0 0 1 1.938 4.663c-.002 3.633-2.972 6.59-6.621 6.59Zm3.632-4.937c-.2-.1-1.178-.579-1.36-.645-.182-.066-.315-.099-.448.1-.133.197-.514.643-.63.776-.117.132-.233.148-.432.049-.199-.099-.84-.308-1.6-.983a5.972 5.972 0 0 1-1.108-1.373c-.117-.198-.013-.305.087-.404.09-.088.2-.231.299-.347.099-.116.132-.198.198-.33.067-.133.034-.249-.016-.348-.05-.1-.449-1.074-.615-1.47-.16-.385-.324-.334-.447-.34a8.614 8.614 0 0 0-.38-.006.736.736 0 0 0-.532.247c-.183.199-.697.677-.697 1.652 0 .976.714 1.918.813 2.05.1.133 1.404 2.133 3.4 2.992.476.204.847.326 1.136.418.476.15.91.129 1.254.078.382-.056 1.177-.479 1.343-.941.166-.463.166-.86.117-.943-.05-.083-.184-.133-.382-.232Z" clip-rule="evenodd" /></symbol></defs></svg>